<mxfile host="app.diagrams.net" modified="2023-04-26T01:43:11.435Z" agent="Mozilla/5.0 (Windows NT 10.0; Win64; x64) AppleWebKit/537.36 (KHTML, like Gecko) Chrome/112.0.0.0 Safari/537.36" etag="lkMApNbqRSLxl8xG0Dvx" version="21.2.1" type="github" pages="3">
  <diagram id="qDHQD82GMPBBo90ymy9h" name="Use Case">
    <mxGraphModel dx="1434" dy="796" grid="1" gridSize="10" guides="1" tooltips="1" connect="1" arrows="1" fold="1" page="1" pageScale="1" pageWidth="1169" pageHeight="827" math="0" shadow="0">
      <root>
        <mxCell id="0" />
        <mxCell id="1" parent="0" />
        <mxCell id="aSvmGlojSZ39FRlVik_b-6" style="edgeStyle=orthogonalEdgeStyle;rounded=0;orthogonalLoop=1;jettySize=auto;html=1;entryX=0;entryY=0.5;entryDx=0;entryDy=0;endArrow=none;endFill=0;" parent="1" source="aSvmGlojSZ39FRlVik_b-1" target="aSvmGlojSZ39FRlVik_b-3" edge="1">
          <mxGeometry relative="1" as="geometry" />
        </mxCell>
        <mxCell id="aSvmGlojSZ39FRlVik_b-7" style="edgeStyle=orthogonalEdgeStyle;rounded=0;orthogonalLoop=1;jettySize=auto;html=1;entryX=0;entryY=0.5;entryDx=0;entryDy=0;endArrow=none;endFill=0;" parent="1" source="aSvmGlojSZ39FRlVik_b-1" target="aSvmGlojSZ39FRlVik_b-2" edge="1">
          <mxGeometry relative="1" as="geometry" />
        </mxCell>
        <mxCell id="xRrdvazNf3-X4LgCfHvj-2" style="edgeStyle=orthogonalEdgeStyle;rounded=0;orthogonalLoop=1;jettySize=auto;html=1;entryX=0;entryY=0.5;entryDx=0;entryDy=0;endArrow=none;endFill=0;" parent="1" source="aSvmGlojSZ39FRlVik_b-1" target="xRrdvazNf3-X4LgCfHvj-1" edge="1">
          <mxGeometry relative="1" as="geometry" />
        </mxCell>
        <mxCell id="BudBvSOEAibtXYh6oaQO-9" style="edgeStyle=orthogonalEdgeStyle;rounded=0;orthogonalLoop=1;jettySize=auto;html=1;entryX=0;entryY=0.5;entryDx=0;entryDy=0;endArrow=none;endFill=0;" parent="1" source="aSvmGlojSZ39FRlVik_b-1" target="BudBvSOEAibtXYh6oaQO-6" edge="1">
          <mxGeometry relative="1" as="geometry" />
        </mxCell>
        <mxCell id="BudBvSOEAibtXYh6oaQO-14" style="edgeStyle=orthogonalEdgeStyle;rounded=0;orthogonalLoop=1;jettySize=auto;html=1;entryX=0;entryY=0.5;entryDx=0;entryDy=0;endArrow=none;endFill=0;" parent="1" source="aSvmGlojSZ39FRlVik_b-1" target="BudBvSOEAibtXYh6oaQO-13" edge="1">
          <mxGeometry relative="1" as="geometry" />
        </mxCell>
        <mxCell id="BudBvSOEAibtXYh6oaQO-16" style="edgeStyle=orthogonalEdgeStyle;rounded=0;orthogonalLoop=1;jettySize=auto;html=1;entryX=0;entryY=0.5;entryDx=0;entryDy=0;endArrow=none;endFill=0;" parent="1" source="aSvmGlojSZ39FRlVik_b-1" target="BudBvSOEAibtXYh6oaQO-15" edge="1">
          <mxGeometry relative="1" as="geometry" />
        </mxCell>
        <mxCell id="vR7O160bT8KqoKbYF1CK-2" style="edgeStyle=orthogonalEdgeStyle;rounded=0;orthogonalLoop=1;jettySize=auto;html=1;entryX=0;entryY=0.5;entryDx=0;entryDy=0;endArrow=none;endFill=0;" parent="1" source="aSvmGlojSZ39FRlVik_b-1" target="vR7O160bT8KqoKbYF1CK-1" edge="1">
          <mxGeometry relative="1" as="geometry" />
        </mxCell>
        <mxCell id="vR7O160bT8KqoKbYF1CK-7" style="edgeStyle=orthogonalEdgeStyle;rounded=0;orthogonalLoop=1;jettySize=auto;html=1;entryX=0;entryY=0.5;entryDx=0;entryDy=0;endArrow=none;endFill=0;" parent="1" source="aSvmGlojSZ39FRlVik_b-1" target="vR7O160bT8KqoKbYF1CK-6" edge="1">
          <mxGeometry relative="1" as="geometry" />
        </mxCell>
        <mxCell id="vR7O160bT8KqoKbYF1CK-10" style="edgeStyle=orthogonalEdgeStyle;rounded=0;orthogonalLoop=1;jettySize=auto;html=1;entryX=0;entryY=0.5;entryDx=0;entryDy=0;endArrow=none;endFill=0;" parent="1" source="aSvmGlojSZ39FRlVik_b-1" target="vR7O160bT8KqoKbYF1CK-9" edge="1">
          <mxGeometry relative="1" as="geometry" />
        </mxCell>
        <mxCell id="vR7O160bT8KqoKbYF1CK-16" style="edgeStyle=orthogonalEdgeStyle;rounded=0;orthogonalLoop=1;jettySize=auto;html=1;entryX=0;entryY=0.5;entryDx=0;entryDy=0;endArrow=none;endFill=0;" parent="1" source="aSvmGlojSZ39FRlVik_b-1" target="vR7O160bT8KqoKbYF1CK-15" edge="1">
          <mxGeometry relative="1" as="geometry" />
        </mxCell>
        <mxCell id="vR7O160bT8KqoKbYF1CK-18" style="edgeStyle=orthogonalEdgeStyle;rounded=0;orthogonalLoop=1;jettySize=auto;html=1;entryX=0;entryY=0.5;entryDx=0;entryDy=0;endArrow=none;endFill=0;" parent="1" source="aSvmGlojSZ39FRlVik_b-1" target="vR7O160bT8KqoKbYF1CK-17" edge="1">
          <mxGeometry relative="1" as="geometry" />
        </mxCell>
        <mxCell id="vR7O160bT8KqoKbYF1CK-23" style="edgeStyle=orthogonalEdgeStyle;rounded=0;orthogonalLoop=1;jettySize=auto;html=1;entryX=0;entryY=0.5;entryDx=0;entryDy=0;endArrow=none;endFill=0;" parent="1" source="aSvmGlojSZ39FRlVik_b-1" target="vR7O160bT8KqoKbYF1CK-21" edge="1">
          <mxGeometry relative="1" as="geometry" />
        </mxCell>
        <mxCell id="vR7O160bT8KqoKbYF1CK-28" style="edgeStyle=orthogonalEdgeStyle;rounded=0;orthogonalLoop=1;jettySize=auto;html=1;entryX=0;entryY=0.5;entryDx=0;entryDy=0;endArrow=none;endFill=0;" parent="1" source="aSvmGlojSZ39FRlVik_b-1" target="vR7O160bT8KqoKbYF1CK-25" edge="1">
          <mxGeometry relative="1" as="geometry" />
        </mxCell>
        <mxCell id="vR7O160bT8KqoKbYF1CK-29" style="edgeStyle=orthogonalEdgeStyle;rounded=0;orthogonalLoop=1;jettySize=auto;html=1;entryX=0;entryY=0.5;entryDx=0;entryDy=0;endArrow=none;endFill=0;" parent="1" source="aSvmGlojSZ39FRlVik_b-1" target="vR7O160bT8KqoKbYF1CK-26" edge="1">
          <mxGeometry relative="1" as="geometry" />
        </mxCell>
        <mxCell id="vR7O160bT8KqoKbYF1CK-35" style="edgeStyle=orthogonalEdgeStyle;rounded=0;orthogonalLoop=1;jettySize=auto;html=1;entryX=0.007;entryY=0.6;entryDx=0;entryDy=0;entryPerimeter=0;" parent="1" source="aSvmGlojSZ39FRlVik_b-1" target="vR7O160bT8KqoKbYF1CK-34" edge="1">
          <mxGeometry relative="1" as="geometry" />
        </mxCell>
        <mxCell id="4_oONG3qNKElWFhnBY-h-2" style="edgeStyle=orthogonalEdgeStyle;rounded=0;orthogonalLoop=1;jettySize=auto;html=1;entryX=0;entryY=0.5;entryDx=0;entryDy=0;endArrow=none;endFill=0;" parent="1" source="aSvmGlojSZ39FRlVik_b-1" target="4_oONG3qNKElWFhnBY-h-1" edge="1">
          <mxGeometry relative="1" as="geometry" />
        </mxCell>
        <mxCell id="aSvmGlojSZ39FRlVik_b-1" value="User" style="shape=umlActor;verticalLabelPosition=bottom;verticalAlign=top;html=1;" parent="1" vertex="1">
          <mxGeometry x="40" y="490" width="30" height="60" as="geometry" />
        </mxCell>
        <mxCell id="aSvmGlojSZ39FRlVik_b-15" value="BookQuest System" style="shape=umlFrame;whiteSpace=wrap;html=1;pointerEvents=0;recursiveResize=0;container=1;collapsible=0;width=160;" parent="1" vertex="1">
          <mxGeometry x="130" y="30" width="950" height="1970" as="geometry" />
        </mxCell>
        <mxCell id="vR7O160bT8KqoKbYF1CK-33" value="&amp;lt;&amp;lt;extend&amp;gt;&amp;gt;" style="html=1;verticalAlign=bottom;labelBackgroundColor=none;endArrow=open;endFill=0;dashed=1;rounded=0;exitX=0.5;exitY=0;exitDx=0;exitDy=0;entryX=0;entryY=1;entryDx=0;entryDy=0;" parent="aSvmGlojSZ39FRlVik_b-15" source="vR7O160bT8KqoKbYF1CK-31" target="BudBvSOEAibtXYh6oaQO-1" edge="1">
          <mxGeometry x="-0.9122" y="1" width="160" relative="1" as="geometry">
            <mxPoint x="200" y="410" as="sourcePoint" />
            <mxPoint x="360" y="410" as="targetPoint" />
            <mxPoint as="offset" />
          </mxGeometry>
        </mxCell>
        <mxCell id="aSvmGlojSZ39FRlVik_b-2" value="Sign Up" style="ellipse;whiteSpace=wrap;html=1;" parent="aSvmGlojSZ39FRlVik_b-15" vertex="1">
          <mxGeometry x="150" y="40" width="140" height="70" as="geometry" />
        </mxCell>
        <mxCell id="aSvmGlojSZ39FRlVik_b-3" value="Sign In" style="ellipse;whiteSpace=wrap;html=1;" parent="aSvmGlojSZ39FRlVik_b-15" vertex="1">
          <mxGeometry x="150" y="140" width="140" height="70" as="geometry" />
        </mxCell>
        <mxCell id="aSvmGlojSZ39FRlVik_b-4" value="&amp;lt;&amp;lt;extend&amp;gt;&amp;gt;" style="html=1;verticalAlign=bottom;labelBackgroundColor=none;endArrow=open;endFill=0;dashed=1;rounded=0;exitX=0.5;exitY=0;exitDx=0;exitDy=0;entryX=0.5;entryY=1;entryDx=0;entryDy=0;" parent="aSvmGlojSZ39FRlVik_b-15" source="aSvmGlojSZ39FRlVik_b-3" target="aSvmGlojSZ39FRlVik_b-2" edge="1">
          <mxGeometry width="160" relative="1" as="geometry">
            <mxPoint x="-60" y="170" as="sourcePoint" />
            <mxPoint x="100" y="170" as="targetPoint" />
          </mxGeometry>
        </mxCell>
        <mxCell id="xRrdvazNf3-X4LgCfHvj-1" value="Logout" style="ellipse;whiteSpace=wrap;html=1;" parent="aSvmGlojSZ39FRlVik_b-15" vertex="1">
          <mxGeometry x="150" y="300" width="140" height="70" as="geometry" />
        </mxCell>
        <mxCell id="xRrdvazNf3-X4LgCfHvj-14" value="Fill login data" style="ellipse;whiteSpace=wrap;html=1;" parent="aSvmGlojSZ39FRlVik_b-15" vertex="1">
          <mxGeometry x="360" y="190" width="140" height="70" as="geometry" />
        </mxCell>
        <mxCell id="xRrdvazNf3-X4LgCfHvj-15" value="&amp;lt;&amp;lt;include&amp;gt;&amp;gt;" style="html=1;verticalAlign=bottom;labelBackgroundColor=none;endArrow=open;endFill=0;dashed=1;rounded=0;exitX=1.014;exitY=0.351;exitDx=0;exitDy=0;entryX=0;entryY=0.5;entryDx=0;entryDy=0;exitPerimeter=0;" parent="aSvmGlojSZ39FRlVik_b-15" source="aSvmGlojSZ39FRlVik_b-3" target="xRrdvazNf3-X4LgCfHvj-14" edge="1">
          <mxGeometry width="160" relative="1" as="geometry">
            <mxPoint x="290" y="220" as="sourcePoint" />
            <mxPoint x="360" y="210" as="targetPoint" />
          </mxGeometry>
        </mxCell>
        <mxCell id="BudBvSOEAibtXYh6oaQO-1" value="Search a book" style="ellipse;whiteSpace=wrap;html=1;" parent="aSvmGlojSZ39FRlVik_b-15" vertex="1">
          <mxGeometry x="380" y="430" width="140" height="70" as="geometry" />
        </mxCell>
        <mxCell id="BudBvSOEAibtXYh6oaQO-2" value="Fill book info" style="ellipse;whiteSpace=wrap;html=1;" parent="aSvmGlojSZ39FRlVik_b-15" vertex="1">
          <mxGeometry x="400" y="310" width="140" height="70" as="geometry" />
        </mxCell>
        <mxCell id="BudBvSOEAibtXYh6oaQO-3" value="&amp;lt;&amp;lt;include&amp;gt;&amp;gt;" style="html=1;verticalAlign=bottom;labelBackgroundColor=none;endArrow=open;endFill=0;dashed=1;rounded=0;exitX=0.5;exitY=0;exitDx=0;exitDy=0;entryX=0.5;entryY=1;entryDx=0;entryDy=0;" parent="aSvmGlojSZ39FRlVik_b-15" source="BudBvSOEAibtXYh6oaQO-1" target="BudBvSOEAibtXYh6oaQO-2" edge="1">
          <mxGeometry width="160" relative="1" as="geometry">
            <mxPoint x="200" y="610" as="sourcePoint" />
            <mxPoint x="360" y="610" as="targetPoint" />
          </mxGeometry>
        </mxCell>
        <mxCell id="BudBvSOEAibtXYh6oaQO-6" value="Include a reading" style="ellipse;whiteSpace=wrap;html=1;" parent="aSvmGlojSZ39FRlVik_b-15" vertex="1">
          <mxGeometry x="150" y="400" width="140" height="70" as="geometry" />
        </mxCell>
        <mxCell id="BudBvSOEAibtXYh6oaQO-10" value="&amp;lt;&amp;lt;include&amp;gt;&amp;gt;" style="html=1;verticalAlign=bottom;labelBackgroundColor=none;endArrow=open;endFill=0;dashed=1;rounded=0;exitX=1;exitY=0.5;exitDx=0;exitDy=0;entryX=0;entryY=0.5;entryDx=0;entryDy=0;" parent="aSvmGlojSZ39FRlVik_b-15" source="BudBvSOEAibtXYh6oaQO-6" target="BudBvSOEAibtXYh6oaQO-1" edge="1">
          <mxGeometry width="160" relative="1" as="geometry">
            <mxPoint x="430" y="450" as="sourcePoint" />
            <mxPoint x="450" y="400" as="targetPoint" />
          </mxGeometry>
        </mxCell>
        <mxCell id="BudBvSOEAibtXYh6oaQO-13" value="Choose a class" style="ellipse;whiteSpace=wrap;html=1;" parent="aSvmGlojSZ39FRlVik_b-15" vertex="1">
          <mxGeometry x="150" y="500" width="140" height="70" as="geometry" />
        </mxCell>
        <mxCell id="BudBvSOEAibtXYh6oaQO-15" value="Call for Master help" style="ellipse;whiteSpace=wrap;html=1;" parent="aSvmGlojSZ39FRlVik_b-15" vertex="1">
          <mxGeometry x="150" y="610" width="140" height="70" as="geometry" />
        </mxCell>
        <mxCell id="BudBvSOEAibtXYh6oaQO-18" value="&amp;lt;&amp;lt;include&amp;gt;&amp;gt;" style="html=1;verticalAlign=bottom;labelBackgroundColor=none;endArrow=open;endFill=0;dashed=1;rounded=0;exitX=0.5;exitY=0;exitDx=0;exitDy=0;entryX=0.5;entryY=1;entryDx=0;entryDy=0;" parent="aSvmGlojSZ39FRlVik_b-15" source="BudBvSOEAibtXYh6oaQO-15" target="BudBvSOEAibtXYh6oaQO-13" edge="1">
          <mxGeometry y="-30" width="160" relative="1" as="geometry">
            <mxPoint x="295" y="595" as="sourcePoint" />
            <mxPoint x="365" y="615" as="targetPoint" />
            <mxPoint as="offset" />
          </mxGeometry>
        </mxCell>
        <mxCell id="vR7O160bT8KqoKbYF1CK-1" value="Update a reading status" style="ellipse;whiteSpace=wrap;html=1;" parent="aSvmGlojSZ39FRlVik_b-15" vertex="1">
          <mxGeometry x="150" y="700" width="140" height="70" as="geometry" />
        </mxCell>
        <mxCell id="vR7O160bT8KqoKbYF1CK-4" value="List readings" style="ellipse;whiteSpace=wrap;html=1;" parent="aSvmGlojSZ39FRlVik_b-15" vertex="1">
          <mxGeometry x="710" y="950" width="140" height="70" as="geometry" />
        </mxCell>
        <mxCell id="vR7O160bT8KqoKbYF1CK-5" value="&amp;lt;&amp;lt;include&amp;gt;&amp;gt;" style="html=1;verticalAlign=bottom;labelBackgroundColor=none;endArrow=open;endFill=0;dashed=1;rounded=0;exitX=1;exitY=0.5;exitDx=0;exitDy=0;entryX=0;entryY=0;entryDx=0;entryDy=0;" parent="aSvmGlojSZ39FRlVik_b-15" source="vR7O160bT8KqoKbYF1CK-1" target="vR7O160bT8KqoKbYF1CK-4" edge="1">
          <mxGeometry x="-0.4669" y="6" width="160" relative="1" as="geometry">
            <mxPoint x="300" y="445" as="sourcePoint" />
            <mxPoint x="370" y="465" as="targetPoint" />
            <mxPoint as="offset" />
          </mxGeometry>
        </mxCell>
        <mxCell id="vR7O160bT8KqoKbYF1CK-6" value="Complete a reading" style="ellipse;whiteSpace=wrap;html=1;" parent="aSvmGlojSZ39FRlVik_b-15" vertex="1">
          <mxGeometry x="150" y="800" width="140" height="70" as="geometry" />
        </mxCell>
        <mxCell id="vR7O160bT8KqoKbYF1CK-8" value="&amp;lt;&amp;lt;include&amp;gt;&amp;gt;" style="html=1;verticalAlign=bottom;labelBackgroundColor=none;endArrow=open;endFill=0;dashed=1;rounded=0;exitX=1;exitY=1;exitDx=0;exitDy=0;entryX=0;entryY=0.5;entryDx=0;entryDy=0;" parent="aSvmGlojSZ39FRlVik_b-15" source="vR7O160bT8KqoKbYF1CK-6" target="vR7O160bT8KqoKbYF1CK-4" edge="1">
          <mxGeometry x="0.561" y="6" width="160" relative="1" as="geometry">
            <mxPoint x="300" y="745" as="sourcePoint" />
            <mxPoint x="360" y="745" as="targetPoint" />
            <Array as="points">
              <mxPoint x="540" y="1000" />
            </Array>
            <mxPoint as="offset" />
          </mxGeometry>
        </mxCell>
        <mxCell id="vR7O160bT8KqoKbYF1CK-9" value="Validate a reading" style="ellipse;whiteSpace=wrap;html=1;" parent="aSvmGlojSZ39FRlVik_b-15" vertex="1">
          <mxGeometry x="150" y="930" width="140" height="70" as="geometry" />
        </mxCell>
        <mxCell id="vR7O160bT8KqoKbYF1CK-11" value="&amp;lt;&amp;lt;include&amp;gt;&amp;gt;" style="html=1;verticalAlign=bottom;labelBackgroundColor=none;endArrow=open;endFill=0;dashed=1;rounded=0;exitX=0.5;exitY=0;exitDx=0;exitDy=0;" parent="aSvmGlojSZ39FRlVik_b-15" source="vR7O160bT8KqoKbYF1CK-9" target="vR7O160bT8KqoKbYF1CK-6" edge="1">
          <mxGeometry y="-20" width="160" relative="1" as="geometry">
            <mxPoint x="299" y="838" as="sourcePoint" />
            <mxPoint x="381" y="770" as="targetPoint" />
            <mxPoint as="offset" />
          </mxGeometry>
        </mxCell>
        <mxCell id="vR7O160bT8KqoKbYF1CK-13" value="Answer questions about a book" style="ellipse;whiteSpace=wrap;html=1;" parent="aSvmGlojSZ39FRlVik_b-15" vertex="1">
          <mxGeometry x="330" y="830" width="140" height="70" as="geometry" />
        </mxCell>
        <mxCell id="vR7O160bT8KqoKbYF1CK-14" value="&amp;lt;&amp;lt;include&amp;gt;&amp;gt;" style="html=1;verticalAlign=bottom;labelBackgroundColor=none;endArrow=open;endFill=0;dashed=1;rounded=0;exitX=1;exitY=0.5;exitDx=0;exitDy=0;entryX=0;entryY=1;entryDx=0;entryDy=0;" parent="aSvmGlojSZ39FRlVik_b-15" source="vR7O160bT8KqoKbYF1CK-9" target="vR7O160bT8KqoKbYF1CK-13" edge="1">
          <mxGeometry width="160" relative="1" as="geometry">
            <mxPoint x="299" y="838" as="sourcePoint" />
            <mxPoint x="381" y="770" as="targetPoint" />
          </mxGeometry>
        </mxCell>
        <mxCell id="vR7O160bT8KqoKbYF1CK-15" value="See character stats" style="ellipse;whiteSpace=wrap;html=1;" parent="aSvmGlojSZ39FRlVik_b-15" vertex="1">
          <mxGeometry x="150" y="1040" width="140" height="70" as="geometry" />
        </mxCell>
        <mxCell id="vR7O160bT8KqoKbYF1CK-17" value="Edit account info" style="ellipse;whiteSpace=wrap;html=1;" parent="aSvmGlojSZ39FRlVik_b-15" vertex="1">
          <mxGeometry x="150" y="1150" width="140" height="70" as="geometry" />
        </mxCell>
        <mxCell id="xRrdvazNf3-X4LgCfHvj-12" value="Fill personal data" style="ellipse;whiteSpace=wrap;html=1;" parent="aSvmGlojSZ39FRlVik_b-15" vertex="1">
          <mxGeometry x="720" y="210" width="140" height="70" as="geometry" />
        </mxCell>
        <mxCell id="xRrdvazNf3-X4LgCfHvj-13" value="&amp;lt;&amp;lt;include&amp;gt;&amp;gt;" style="html=1;verticalAlign=bottom;labelBackgroundColor=none;endArrow=open;endFill=0;dashed=1;rounded=0;exitX=1;exitY=0;exitDx=0;exitDy=0;entryX=0;entryY=0.5;entryDx=0;entryDy=0;" parent="aSvmGlojSZ39FRlVik_b-15" source="aSvmGlojSZ39FRlVik_b-2" target="xRrdvazNf3-X4LgCfHvj-12" edge="1">
          <mxGeometry width="160" relative="1" as="geometry">
            <mxPoint x="200" y="240" as="sourcePoint" />
            <mxPoint x="360" y="240" as="targetPoint" />
          </mxGeometry>
        </mxCell>
        <mxCell id="vR7O160bT8KqoKbYF1CK-19" value="&amp;lt;&amp;lt;include&amp;gt;&amp;gt;" style="html=1;verticalAlign=bottom;labelBackgroundColor=none;endArrow=open;endFill=0;dashed=1;rounded=0;exitX=1;exitY=0.5;exitDx=0;exitDy=0;" parent="aSvmGlojSZ39FRlVik_b-15" source="vR7O160bT8KqoKbYF1CK-17" target="xRrdvazNf3-X4LgCfHvj-12" edge="1">
          <mxGeometry width="160" relative="1" as="geometry">
            <mxPoint x="300" y="85" as="sourcePoint" />
            <mxPoint x="400" y="75" as="targetPoint" />
            <Array as="points">
              <mxPoint x="690" y="760" />
              <mxPoint x="780" y="300" />
            </Array>
          </mxGeometry>
        </mxCell>
        <mxCell id="vR7O160bT8KqoKbYF1CK-21" value="See bookshelf" style="ellipse;whiteSpace=wrap;html=1;" parent="aSvmGlojSZ39FRlVik_b-15" vertex="1">
          <mxGeometry x="150" y="1250" width="140" height="70" as="geometry" />
        </mxCell>
        <mxCell id="vR7O160bT8KqoKbYF1CK-22" value="&amp;lt;&amp;lt;include&amp;gt;&amp;gt;" style="html=1;verticalAlign=bottom;labelBackgroundColor=none;endArrow=open;endFill=0;dashed=1;rounded=0;exitX=1;exitY=0.5;exitDx=0;exitDy=0;entryX=0;entryY=1;entryDx=0;entryDy=0;" parent="aSvmGlojSZ39FRlVik_b-15" source="vR7O160bT8KqoKbYF1CK-21" target="vR7O160bT8KqoKbYF1CK-4" edge="1">
          <mxGeometry x="-0.4669" y="6" width="160" relative="1" as="geometry">
            <mxPoint x="300" y="745" as="sourcePoint" />
            <mxPoint x="741" y="970" as="targetPoint" />
            <mxPoint as="offset" />
          </mxGeometry>
        </mxCell>
        <mxCell id="vR7O160bT8KqoKbYF1CK-25" value="Create a forum topic" style="ellipse;whiteSpace=wrap;html=1;" parent="aSvmGlojSZ39FRlVik_b-15" vertex="1">
          <mxGeometry x="150" y="1380" width="140" height="70" as="geometry" />
        </mxCell>
        <mxCell id="vR7O160bT8KqoKbYF1CK-26" value="Send a message to a forum" style="ellipse;whiteSpace=wrap;html=1;" parent="aSvmGlojSZ39FRlVik_b-15" vertex="1">
          <mxGeometry x="150" y="1490" width="140" height="70" as="geometry" />
        </mxCell>
        <mxCell id="vR7O160bT8KqoKbYF1CK-30" value="&amp;lt;&amp;lt;include&amp;gt;&amp;gt;" style="html=1;verticalAlign=bottom;labelBackgroundColor=none;endArrow=open;endFill=0;dashed=1;rounded=0;exitX=1;exitY=0.5;exitDx=0;exitDy=0;entryX=0.5;entryY=1;entryDx=0;entryDy=0;" parent="aSvmGlojSZ39FRlVik_b-15" source="vR7O160bT8KqoKbYF1CK-25" target="BudBvSOEAibtXYh6oaQO-1" edge="1">
          <mxGeometry x="-0.4669" y="6" width="160" relative="1" as="geometry">
            <mxPoint x="300" y="1295" as="sourcePoint" />
            <mxPoint x="741" y="1020" as="targetPoint" />
            <mxPoint as="offset" />
            <Array as="points">
              <mxPoint x="570" y="1200" />
            </Array>
          </mxGeometry>
        </mxCell>
        <mxCell id="vR7O160bT8KqoKbYF1CK-31" value="Search a forum" style="ellipse;whiteSpace=wrap;html=1;" parent="aSvmGlojSZ39FRlVik_b-15" vertex="1">
          <mxGeometry x="400" y="1400" width="140" height="70" as="geometry" />
        </mxCell>
        <mxCell id="vR7O160bT8KqoKbYF1CK-32" value="&amp;lt;&amp;lt;extend&amp;gt;&amp;gt;" style="html=1;verticalAlign=bottom;labelBackgroundColor=none;endArrow=open;endFill=0;dashed=1;rounded=0;exitX=1;exitY=0.5;exitDx=0;exitDy=0;entryX=0;entryY=1;entryDx=0;entryDy=0;" parent="aSvmGlojSZ39FRlVik_b-15" source="vR7O160bT8KqoKbYF1CK-26" target="vR7O160bT8KqoKbYF1CK-31" edge="1">
          <mxGeometry x="-0.4669" y="6" width="160" relative="1" as="geometry">
            <mxPoint x="300" y="1295" as="sourcePoint" />
            <mxPoint x="741" y="1020" as="targetPoint" />
            <mxPoint as="offset" />
          </mxGeometry>
        </mxCell>
        <mxCell id="vR7O160bT8KqoKbYF1CK-34" value="Visit shop" style="ellipse;whiteSpace=wrap;html=1;" parent="aSvmGlojSZ39FRlVik_b-15" vertex="1">
          <mxGeometry x="150" y="1610" width="140" height="70" as="geometry" />
        </mxCell>
        <mxCell id="vR7O160bT8KqoKbYF1CK-36" value="Buy item" style="ellipse;whiteSpace=wrap;html=1;" parent="aSvmGlojSZ39FRlVik_b-15" vertex="1">
          <mxGeometry x="350" y="1550" width="140" height="70" as="geometry" />
        </mxCell>
        <mxCell id="vR7O160bT8KqoKbYF1CK-38" value="&amp;lt;&amp;lt;extend&amp;gt;&amp;gt;" style="html=1;verticalAlign=bottom;labelBackgroundColor=none;endArrow=open;endFill=0;dashed=1;rounded=0;exitX=1;exitY=0;exitDx=0;exitDy=0;entryX=0;entryY=0.5;entryDx=0;entryDy=0;" parent="aSvmGlojSZ39FRlVik_b-15" source="vR7O160bT8KqoKbYF1CK-34" target="vR7O160bT8KqoKbYF1CK-36" edge="1">
          <mxGeometry x="-0.4669" y="6" width="160" relative="1" as="geometry">
            <mxPoint x="300" y="1535" as="sourcePoint" />
            <mxPoint x="431" y="1470" as="targetPoint" />
            <mxPoint as="offset" />
          </mxGeometry>
        </mxCell>
        <mxCell id="4_oONG3qNKElWFhnBY-h-1" value="Forgot password" style="ellipse;whiteSpace=wrap;html=1;" parent="aSvmGlojSZ39FRlVik_b-15" vertex="1">
          <mxGeometry x="150" y="220" width="140" height="70" as="geometry" />
        </mxCell>
        <mxCell id="BudBvSOEAibtXYh6oaQO-11" value="Update a profile pic" style="ellipse;whiteSpace=wrap;html=1;" parent="1" vertex="1">
          <mxGeometry x="880" y="500" width="140" height="70" as="geometry" />
        </mxCell>
        <mxCell id="BudBvSOEAibtXYh6oaQO-12" value="&amp;lt;&amp;lt;extend&amp;gt;&amp;gt;" style="html=1;verticalAlign=bottom;labelBackgroundColor=none;endArrow=open;endFill=0;dashed=1;rounded=0;exitX=1;exitY=1;exitDx=0;exitDy=0;entryX=0;entryY=0;entryDx=0;entryDy=0;" parent="1" source="aSvmGlojSZ39FRlVik_b-2" target="BudBvSOEAibtXYh6oaQO-11" edge="1">
          <mxGeometry width="160" relative="1" as="geometry">
            <mxPoint x="360" y="240" as="sourcePoint" />
            <mxPoint x="360" y="150" as="targetPoint" />
            <Array as="points">
              <mxPoint x="730" y="250" />
            </Array>
          </mxGeometry>
        </mxCell>
        <mxCell id="vR7O160bT8KqoKbYF1CK-20" value="&amp;lt;&amp;lt;extend&amp;gt;&amp;gt;" style="html=1;verticalAlign=bottom;labelBackgroundColor=none;endArrow=open;endFill=0;dashed=1;rounded=0;exitX=1;exitY=0;exitDx=0;exitDy=0;entryX=0.5;entryY=1;entryDx=0;entryDy=0;" parent="1" source="vR7O160bT8KqoKbYF1CK-17" target="BudBvSOEAibtXYh6oaQO-11" edge="1">
          <mxGeometry width="160" relative="1" as="geometry">
            <mxPoint x="430" y="1225" as="sourcePoint" />
            <mxPoint x="649" y="130" as="targetPoint" />
            <Array as="points">
              <mxPoint x="740" y="770" />
              <mxPoint x="900" y="610" />
            </Array>
          </mxGeometry>
        </mxCell>
      </root>
    </mxGraphModel>
  </diagram>
  <diagram name="Sign Up" id="xE4xQUZJ3egpPyJv8tlM">
    <mxGraphModel dx="875" dy="484" grid="1" gridSize="10" guides="1" tooltips="1" connect="1" arrows="1" fold="1" page="1" pageScale="1" pageWidth="827" pageHeight="1169" math="0" shadow="0">
      <root>
        <mxCell id="0SrOiqEIG8Nz5FWfWr3G-0" />
        <mxCell id="0SrOiqEIG8Nz5FWfWr3G-1" parent="0SrOiqEIG8Nz5FWfWr3G-0" />
        <mxCell id="0SrOiqEIG8Nz5FWfWr3G-6" value="Sign Up" style="shape=umlFrame;whiteSpace=wrap;html=1;pointerEvents=0;recursiveResize=0;container=1;collapsible=0;width=160;" parent="0SrOiqEIG8Nz5FWfWr3G-1" vertex="1">
          <mxGeometry x="10" y="30" width="810" height="530" as="geometry" />
        </mxCell>
        <mxCell id="zVsvnloIM7RPG_rWuzSU-1" value="" style="shape=umlLifeline;perimeter=lifelinePerimeter;whiteSpace=wrap;html=1;container=1;dropTarget=0;collapsible=0;recursiveResize=0;outlineConnect=0;portConstraint=eastwest;newEdgeStyle={&quot;edgeStyle&quot;:&quot;elbowEdgeStyle&quot;,&quot;elbow&quot;:&quot;vertical&quot;,&quot;curved&quot;:0,&quot;rounded&quot;:0};participant=umlActor;" parent="0SrOiqEIG8Nz5FWfWr3G-6" vertex="1">
          <mxGeometry x="30" y="40" width="20" height="300" as="geometry" />
        </mxCell>
        <mxCell id="tRfEG3Cj11H4e8dLmUSe-5" value="&lt;span style=&quot;background-color: rgb(255, 255, 255);&quot;&gt;FormController&lt;/span&gt;" style="shape=umlLifeline;perimeter=lifelinePerimeter;whiteSpace=wrap;html=1;container=1;dropTarget=0;collapsible=0;recursiveResize=0;outlineConnect=0;portConstraint=eastwest;newEdgeStyle={&quot;edgeStyle&quot;:&quot;elbowEdgeStyle&quot;,&quot;elbow&quot;:&quot;vertical&quot;,&quot;curved&quot;:0,&quot;rounded&quot;:0};participant=umlControl;" vertex="1" parent="0SrOiqEIG8Nz5FWfWr3G-6">
          <mxGeometry x="350" y="40" width="40" height="300" as="geometry" />
        </mxCell>
        <mxCell id="tRfEG3Cj11H4e8dLmUSe-4" value="" style="shape=umlLifeline;perimeter=lifelinePerimeter;whiteSpace=wrap;html=1;container=1;dropTarget=0;collapsible=0;recursiveResize=0;outlineConnect=0;portConstraint=eastwest;newEdgeStyle={&quot;edgeStyle&quot;:&quot;elbowEdgeStyle&quot;,&quot;elbow&quot;:&quot;vertical&quot;,&quot;curved&quot;:0,&quot;rounded&quot;:0};participant=umlEntity;" vertex="1" parent="0SrOiqEIG8Nz5FWfWr3G-6">
          <mxGeometry x="520" y="30" width="40" height="300" as="geometry" />
        </mxCell>
        <mxCell id="tRfEG3Cj11H4e8dLmUSe-6" value="&lt;blockquote style=&quot;margin: 0 0 0 40px; border: none; padding: 0px;&quot;&gt;&lt;span style=&quot;background-color: rgb(255, 255, 255);&quot;&gt;RegisterForm&lt;/span&gt;&lt;/blockquote&gt;" style="shape=umlLifeline;perimeter=lifelinePerimeter;whiteSpace=wrap;html=1;container=1;dropTarget=0;collapsible=0;recursiveResize=0;outlineConnect=0;portConstraint=eastwest;newEdgeStyle={&quot;edgeStyle&quot;:&quot;elbowEdgeStyle&quot;,&quot;elbow&quot;:&quot;vertical&quot;,&quot;curved&quot;:0,&quot;rounded&quot;:0};participant=umlBoundary;" vertex="1" parent="0SrOiqEIG8Nz5FWfWr3G-6">
          <mxGeometry x="190" y="40" width="50" height="300" as="geometry" />
        </mxCell>
        <mxCell id="tRfEG3Cj11H4e8dLmUSe-23" style="edgeStyle=elbowEdgeStyle;rounded=0;orthogonalLoop=1;jettySize=auto;html=1;elbow=vertical;curved=0;endArrow=block;endFill=1;entryX=0;entryY=0;entryDx=0;entryDy=0;" edge="1" parent="0SrOiqEIG8Nz5FWfWr3G-6" target="tRfEG3Cj11H4e8dLmUSe-34">
          <mxGeometry relative="1" as="geometry">
            <mxPoint x="45" y="120" as="sourcePoint" />
            <mxPoint x="170" y="130" as="targetPoint" />
            <Array as="points" />
          </mxGeometry>
        </mxCell>
        <mxCell id="tRfEG3Cj11H4e8dLmUSe-25" value="fill form" style="edgeLabel;html=1;align=center;verticalAlign=middle;resizable=0;points=[];" vertex="1" connectable="0" parent="tRfEG3Cj11H4e8dLmUSe-23">
          <mxGeometry x="-0.4588" y="3" relative="1" as="geometry">
            <mxPoint x="30" y="-7" as="offset" />
          </mxGeometry>
        </mxCell>
        <mxCell id="tRfEG3Cj11H4e8dLmUSe-34" value="" style="rounded=0;dashed=0;" vertex="1" parent="0SrOiqEIG8Nz5FWfWr3G-6">
          <mxGeometry x="210" y="120" width="10" height="60" as="geometry" />
        </mxCell>
        <mxCell id="tRfEG3Cj11H4e8dLmUSe-35" value="" style="rounded=0;dashed=0;" vertex="1" parent="0SrOiqEIG8Nz5FWfWr3G-6">
          <mxGeometry x="35" y="90" width="10" height="230" as="geometry" />
        </mxCell>
        <mxCell id="tRfEG3Cj11H4e8dLmUSe-36" value="" style="rounded=0;dashed=0;" vertex="1" parent="0SrOiqEIG8Nz5FWfWr3G-6">
          <mxGeometry x="365" y="180" width="10" height="60" as="geometry" />
        </mxCell>
      </root>
    </mxGraphModel>
  </diagram>
  <diagram id="lbG827uHWX94jPGeVl_0" name="Página-3">
    <mxGraphModel dx="2261" dy="796" grid="1" gridSize="10" guides="1" tooltips="1" connect="1" arrows="1" fold="1" page="1" pageScale="1" pageWidth="827" pageHeight="1169" math="0" shadow="0">
      <root>
        <mxCell id="0" />
        <mxCell id="1" parent="0" />
        <mxCell id="FPxbqg7o6fHpd-sHErTs-20" value="" style="edgeStyle=orthogonalEdgeStyle;rounded=0;orthogonalLoop=1;jettySize=auto;html=1;" edge="1" parent="1" source="FPxbqg7o6fHpd-sHErTs-1" target="FPxbqg7o6fHpd-sHErTs-19">
          <mxGeometry relative="1" as="geometry" />
        </mxCell>
        <mxCell id="FPxbqg7o6fHpd-sHErTs-26" style="edgeStyle=orthogonalEdgeStyle;rounded=0;orthogonalLoop=1;jettySize=auto;html=1;exitX=1;exitY=0;exitDx=0;exitDy=0;entryX=0;entryY=0.65;entryDx=0;entryDy=0;entryPerimeter=0;" edge="1" parent="1" source="FPxbqg7o6fHpd-sHErTs-1" target="FPxbqg7o6fHpd-sHErTs-24">
          <mxGeometry relative="1" as="geometry" />
        </mxCell>
        <mxCell id="FPxbqg7o6fHpd-sHErTs-39" style="edgeStyle=orthogonalEdgeStyle;rounded=0;orthogonalLoop=1;jettySize=auto;html=1;entryX=0;entryY=1;entryDx=0;entryDy=0;" edge="1" parent="1" source="FPxbqg7o6fHpd-sHErTs-1" target="FPxbqg7o6fHpd-sHErTs-12">
          <mxGeometry relative="1" as="geometry">
            <Array as="points">
              <mxPoint x="80" y="340" />
              <mxPoint x="302" y="340" />
            </Array>
          </mxGeometry>
        </mxCell>
        <mxCell id="FPxbqg7o6fHpd-sHErTs-41" style="edgeStyle=orthogonalEdgeStyle;rounded=0;orthogonalLoop=1;jettySize=auto;html=1;exitX=0;exitY=0;exitDx=0;exitDy=0;entryX=0.5;entryY=1;entryDx=0;entryDy=0;" edge="1" parent="1" source="FPxbqg7o6fHpd-sHErTs-1" target="FPxbqg7o6fHpd-sHErTs-33">
          <mxGeometry relative="1" as="geometry" />
        </mxCell>
        <mxCell id="FPxbqg7o6fHpd-sHErTs-51" style="edgeStyle=orthogonalEdgeStyle;rounded=0;orthogonalLoop=1;jettySize=auto;html=1;exitX=0;exitY=0.5;exitDx=0;exitDy=0;entryX=0;entryY=0.5;entryDx=0;entryDy=0;" edge="1" parent="1" source="FPxbqg7o6fHpd-sHErTs-1" target="FPxbqg7o6fHpd-sHErTs-50">
          <mxGeometry relative="1" as="geometry" />
        </mxCell>
        <mxCell id="FPxbqg7o6fHpd-sHErTs-1" value="&lt;b&gt;Engenharia de Software&lt;/b&gt;" style="ellipse;whiteSpace=wrap;html=1;fillColor=#dae8fc;strokeWidth=3;strokeColor=#6c8ebf;" vertex="1" parent="1">
          <mxGeometry x="20" y="430" width="120" height="80" as="geometry" />
        </mxCell>
        <mxCell id="FPxbqg7o6fHpd-sHErTs-15" style="edgeStyle=orthogonalEdgeStyle;rounded=0;orthogonalLoop=1;jettySize=auto;html=1;" edge="1" parent="1" source="FPxbqg7o6fHpd-sHErTs-2" target="FPxbqg7o6fHpd-sHErTs-4">
          <mxGeometry relative="1" as="geometry" />
        </mxCell>
        <mxCell id="FPxbqg7o6fHpd-sHErTs-17" style="edgeStyle=orthogonalEdgeStyle;rounded=0;orthogonalLoop=1;jettySize=auto;html=1;entryX=0.5;entryY=1;entryDx=0;entryDy=0;" edge="1" parent="1" source="FPxbqg7o6fHpd-sHErTs-2" target="FPxbqg7o6fHpd-sHErTs-3">
          <mxGeometry relative="1" as="geometry" />
        </mxCell>
        <mxCell id="FPxbqg7o6fHpd-sHErTs-21" style="edgeStyle=orthogonalEdgeStyle;rounded=0;orthogonalLoop=1;jettySize=auto;html=1;entryX=1;entryY=0.5;entryDx=0;entryDy=0;" edge="1" parent="1" source="FPxbqg7o6fHpd-sHErTs-2" target="FPxbqg7o6fHpd-sHErTs-19">
          <mxGeometry relative="1" as="geometry" />
        </mxCell>
        <mxCell id="FPxbqg7o6fHpd-sHErTs-2" value="Framework" style="ellipse;whiteSpace=wrap;html=1;" vertex="1" parent="1">
          <mxGeometry x="390" y="430" width="120" height="80" as="geometry" />
        </mxCell>
        <mxCell id="FPxbqg7o6fHpd-sHErTs-14" style="edgeStyle=orthogonalEdgeStyle;rounded=0;orthogonalLoop=1;jettySize=auto;html=1;entryX=0.5;entryY=0;entryDx=0;entryDy=0;" edge="1" parent="1" source="FPxbqg7o6fHpd-sHErTs-3" target="FPxbqg7o6fHpd-sHErTs-12">
          <mxGeometry relative="1" as="geometry" />
        </mxCell>
        <mxCell id="FPxbqg7o6fHpd-sHErTs-30" style="edgeStyle=orthogonalEdgeStyle;rounded=0;orthogonalLoop=1;jettySize=auto;html=1;exitX=0;exitY=1;exitDx=0;exitDy=0;entryX=1;entryY=0.25;entryDx=0;entryDy=0;" edge="1" parent="1" source="FPxbqg7o6fHpd-sHErTs-3" target="FPxbqg7o6fHpd-sHErTs-24">
          <mxGeometry relative="1" as="geometry" />
        </mxCell>
        <mxCell id="FPxbqg7o6fHpd-sHErTs-43" value="" style="edgeStyle=orthogonalEdgeStyle;rounded=0;orthogonalLoop=1;jettySize=auto;html=1;" edge="1" parent="1" source="FPxbqg7o6fHpd-sHErTs-3" target="FPxbqg7o6fHpd-sHErTs-42">
          <mxGeometry relative="1" as="geometry" />
        </mxCell>
        <mxCell id="FPxbqg7o6fHpd-sHErTs-3" value="&lt;b&gt;CMM&lt;/b&gt;" style="ellipse;whiteSpace=wrap;html=1;fillColor=#dae8fc;strokeWidth=3;strokeColor=#6c8ebf;" vertex="1" parent="1">
          <mxGeometry x="490" y="130" width="120" height="80" as="geometry" />
        </mxCell>
        <mxCell id="FPxbqg7o6fHpd-sHErTs-31" style="edgeStyle=orthogonalEdgeStyle;rounded=0;orthogonalLoop=1;jettySize=auto;html=1;exitX=0;exitY=0;exitDx=0;exitDy=0;entryX=1;entryY=0.75;entryDx=0;entryDy=0;" edge="1" parent="1" source="FPxbqg7o6fHpd-sHErTs-4" target="FPxbqg7o6fHpd-sHErTs-24">
          <mxGeometry relative="1" as="geometry" />
        </mxCell>
        <mxCell id="FPxbqg7o6fHpd-sHErTs-44" style="edgeStyle=orthogonalEdgeStyle;rounded=0;orthogonalLoop=1;jettySize=auto;html=1;entryX=0.5;entryY=1;entryDx=0;entryDy=0;" edge="1" parent="1" source="FPxbqg7o6fHpd-sHErTs-4" target="FPxbqg7o6fHpd-sHErTs-42">
          <mxGeometry relative="1" as="geometry" />
        </mxCell>
        <mxCell id="FPxbqg7o6fHpd-sHErTs-47" value="" style="edgeStyle=orthogonalEdgeStyle;rounded=0;orthogonalLoop=1;jettySize=auto;html=1;" edge="1" parent="1" source="FPxbqg7o6fHpd-sHErTs-4" target="FPxbqg7o6fHpd-sHErTs-46">
          <mxGeometry relative="1" as="geometry" />
        </mxCell>
        <mxCell id="FPxbqg7o6fHpd-sHErTs-48" style="edgeStyle=orthogonalEdgeStyle;rounded=0;orthogonalLoop=1;jettySize=auto;html=1;exitX=0.5;exitY=0;exitDx=0;exitDy=0;entryX=1;entryY=1;entryDx=0;entryDy=0;" edge="1" parent="1" source="FPxbqg7o6fHpd-sHErTs-4" target="FPxbqg7o6fHpd-sHErTs-12">
          <mxGeometry relative="1" as="geometry" />
        </mxCell>
        <mxCell id="FPxbqg7o6fHpd-sHErTs-4" value="&lt;b&gt;CMMI&lt;/b&gt;" style="ellipse;whiteSpace=wrap;html=1;fillColor=#dae8fc;strokeWidth=3;strokeColor=#6c8ebf;" vertex="1" parent="1">
          <mxGeometry x="580" y="350" width="120" height="80" as="geometry" />
        </mxCell>
        <mxCell id="FPxbqg7o6fHpd-sHErTs-10" value="" style="edgeStyle=orthogonalEdgeStyle;rounded=0;orthogonalLoop=1;jettySize=auto;html=1;" edge="1" parent="1" source="FPxbqg7o6fHpd-sHErTs-5" target="FPxbqg7o6fHpd-sHErTs-9">
          <mxGeometry relative="1" as="geometry" />
        </mxCell>
        <mxCell id="FPxbqg7o6fHpd-sHErTs-13" value="" style="edgeStyle=orthogonalEdgeStyle;rounded=0;orthogonalLoop=1;jettySize=auto;html=1;" edge="1" parent="1" source="FPxbqg7o6fHpd-sHErTs-5" target="FPxbqg7o6fHpd-sHErTs-12">
          <mxGeometry relative="1" as="geometry" />
        </mxCell>
        <mxCell id="FPxbqg7o6fHpd-sHErTs-29" style="edgeStyle=orthogonalEdgeStyle;rounded=0;orthogonalLoop=1;jettySize=auto;html=1;exitX=1;exitY=1;exitDx=0;exitDy=0;entryX=0.5;entryY=0;entryDx=0;entryDy=0;" edge="1" parent="1" source="FPxbqg7o6fHpd-sHErTs-5" target="FPxbqg7o6fHpd-sHErTs-24">
          <mxGeometry relative="1" as="geometry" />
        </mxCell>
        <mxCell id="FPxbqg7o6fHpd-sHErTs-35" style="edgeStyle=orthogonalEdgeStyle;rounded=0;orthogonalLoop=1;jettySize=auto;html=1;exitX=0;exitY=1;exitDx=0;exitDy=0;entryX=0.5;entryY=0;entryDx=0;entryDy=0;" edge="1" parent="1" source="FPxbqg7o6fHpd-sHErTs-5" target="FPxbqg7o6fHpd-sHErTs-33">
          <mxGeometry relative="1" as="geometry" />
        </mxCell>
        <mxCell id="FPxbqg7o6fHpd-sHErTs-38" value="" style="edgeStyle=orthogonalEdgeStyle;rounded=0;orthogonalLoop=1;jettySize=auto;html=1;" edge="1" parent="1" source="FPxbqg7o6fHpd-sHErTs-5" target="FPxbqg7o6fHpd-sHErTs-37">
          <mxGeometry relative="1" as="geometry" />
        </mxCell>
        <mxCell id="FPxbqg7o6fHpd-sHErTs-52" style="edgeStyle=orthogonalEdgeStyle;rounded=0;orthogonalLoop=1;jettySize=auto;html=1;exitX=0;exitY=0;exitDx=0;exitDy=0;entryX=0.5;entryY=0;entryDx=0;entryDy=0;" edge="1" parent="1" source="FPxbqg7o6fHpd-sHErTs-5" target="FPxbqg7o6fHpd-sHErTs-50">
          <mxGeometry relative="1" as="geometry" />
        </mxCell>
        <mxCell id="FPxbqg7o6fHpd-sHErTs-5" value="&lt;b&gt;RUP&lt;/b&gt;" style="ellipse;whiteSpace=wrap;html=1;fillColor=#dae8fc;strokeWidth=3;strokeColor=#6c8ebf;" vertex="1" parent="1">
          <mxGeometry x="110" y="190" width="120" height="80" as="geometry" />
        </mxCell>
        <mxCell id="FPxbqg7o6fHpd-sHErTs-9" value="Metodologia" style="ellipse;whiteSpace=wrap;html=1;" vertex="1" parent="1">
          <mxGeometry x="-60" y="170" width="80" height="80" as="geometry" />
        </mxCell>
        <mxCell id="FPxbqg7o6fHpd-sHErTs-12" value="Processos" style="ellipse;whiteSpace=wrap;html=1;fillColor=#f8cecc;strokeColor=#b85450;" vertex="1" parent="1">
          <mxGeometry x="290" y="160" width="80" height="80" as="geometry" />
        </mxCell>
        <mxCell id="FPxbqg7o6fHpd-sHErTs-19" value="Estrutura" style="ellipse;whiteSpace=wrap;html=1;fillColor=#f8cecc;strokeColor=#b85450;" vertex="1" parent="1">
          <mxGeometry x="270" y="500" width="80" height="80" as="geometry" />
        </mxCell>
        <mxCell id="FPxbqg7o6fHpd-sHErTs-24" value="&lt;b&gt;&lt;font style=&quot;font-size: 18px;&quot;&gt;Qualidade&lt;/font&gt;&lt;/b&gt;" style="rounded=0;whiteSpace=wrap;html=1;strokeColor=#d6b656;fillColor=#fff2cc;strokeWidth=5;" vertex="1" parent="1">
          <mxGeometry x="260" y="360" width="120" height="60" as="geometry" />
        </mxCell>
        <mxCell id="FPxbqg7o6fHpd-sHErTs-33" value="Custos" style="ellipse;whiteSpace=wrap;html=1;fillColor=#f8cecc;strokeColor=#b85450;" vertex="1" parent="1">
          <mxGeometry x="-80" y="280" width="80" height="80" as="geometry" />
        </mxCell>
        <mxCell id="FPxbqg7o6fHpd-sHErTs-37" value="Tempo" style="ellipse;whiteSpace=wrap;html=1;" vertex="1" parent="1">
          <mxGeometry x="130" y="60" width="80" height="80" as="geometry" />
        </mxCell>
        <mxCell id="FPxbqg7o6fHpd-sHErTs-42" value="Maturidade de um projeto" style="ellipse;whiteSpace=wrap;html=1;" vertex="1" parent="1">
          <mxGeometry x="710" y="130" width="90" height="90" as="geometry" />
        </mxCell>
        <mxCell id="FPxbqg7o6fHpd-sHErTs-46" value="Organizações" style="ellipse;whiteSpace=wrap;html=1;" vertex="1" parent="1">
          <mxGeometry x="600" y="510" width="80" height="80" as="geometry" />
        </mxCell>
        <mxCell id="FPxbqg7o6fHpd-sHErTs-50" value="Planejamento" style="ellipse;whiteSpace=wrap;html=1;aspect=fixed;fillColor=#f8cecc;strokeColor=#b85450;" vertex="1" parent="1">
          <mxGeometry x="-140" y="120" width="80" height="80" as="geometry" />
        </mxCell>
      </root>
    </mxGraphModel>
  </diagram>
</mxfile>
